<svg width="183" height="133" viewBox="0 0 183 133" fill="none" xmlns="http://www.w3.org/2000/svg">
<path d="M4.048 84.0205V76.4525L33.616 34.0365H45.76V75.3085H53.944V84.0205H45.76V97.3965H35.904V84.0205H4.048ZM36.344 44.2445L15.576 75.3085H36.344V44.2445Z" fill="#495057"/>
<path d="M129.928 83.624V76.056L159.496 33.64H171.64V74.912H179.824V83.624H171.64V97H161.784V83.624H129.928ZM162.224 43.848L141.456 74.912H162.224V43.848Z" fill="#495057"/>
<path fill-rule="evenodd" clip-rule="evenodd" d="M90.8799 36C74.3379 36 60.8799 49.458 60.8799 66C60.8799 82.542 74.3379 96 90.8799 96C107.422 96 120.88 82.542 120.88 66C120.88 49.458 107.422 36 90.8799 36ZM113.113 57H102.88V57.093C102.004 55.917 100.963 54.876 99.7869 54H99.8799V43.767C105.883 46.206 110.674 51 113.113 57ZM90.8799 75C85.9179 75 81.8799 70.962 81.8799 66C81.8799 61.038 85.9179 57 90.8799 57C95.8419 57 99.8799 61.038 99.8799 66C99.8799 70.962 95.8419 75 90.8799 75ZM93.8799 42.207V51.303C92.9109 51.105 91.9089 51 90.8799 51C89.8509 51 88.8489 51.105 87.8799 51.303V42.207C88.8639 42.084 89.8599 42 90.8799 42C91.8999 42 92.8959 42.084 93.8799 42.207ZM81.8799 43.767V54H81.9729C80.7969 54.876 79.7558 55.917 78.8799 57.093V57H68.6469C71.0858 51 75.8769 46.206 81.8799 43.767ZM67.0869 63H76.1829C75.9849 63.969 75.8799 64.974 75.8799 66C75.8799 67.026 75.9849 68.031 76.1859 69H67.0869C66.9639 68.016 66.8799 67.017 66.8799 66C66.8799 64.983 66.9639 63.984 67.0869 63ZM68.6469 75H78.8799V74.907C79.7319 76.05 80.7429 77.061 81.8799 77.922V88.233C75.8769 85.794 71.0858 81 68.6469 75ZM87.8799 89.793V80.697C88.8489 80.895 89.8509 81 90.8799 81C91.9089 81 92.9109 80.895 93.8799 80.697V89.793C92.8959 89.916 91.8999 90 90.8799 90C89.8599 90 88.8639 89.916 87.8799 89.793ZM99.8799 88.233V77.922C101.017 77.061 102.028 76.05 102.88 74.907V75H113.113C110.674 81 105.883 85.794 99.8799 88.233ZM114.673 69H105.577C105.775 68.031 105.88 67.026 105.88 66C105.88 64.974 105.775 63.969 105.574 63H114.67C114.796 63.984 114.88 64.983 114.88 66C114.88 67.017 114.796 68.016 114.673 69Z" fill="#556EE6"/>
</svg>
